{
  "asset": {
    "version": "2.0",
    "generator": "THREE.GLTFExporter"
  },
  "scenes": [
    {
      "name": "Scene",
      "nodes": [
        2,
        3
      ]
    }
  ],
  "scene": 0,
  "nodes": [
    {
      "name": "vanguard_Mesh",
      "extras": {
        "name": "vanguard_Mesh"
      },
      "mesh": 0,
      "skin": 0
    },
    {
      "rotation": [
        -0.70710676908493,
        0,
        0,
        0.7071067932881648
      ],
      "scale": [
        0.009999999776482582,
        0.009999999434197177,
        0.009999999434197177
      ],
      "name": "Character",
      "extras": {
        "name": "Character"
      },
      "children": [
        0
      ]
    },
    {
      "name": "Soldier.glb",
      "extras": {
        "background_color": [
          0.05087608844041824,
          0.05087608844041824,
          0.05087608844041824
        ],
        "frames_per_second": 30
      },
      "children": [
        1
      ]
    },
    {
      "translation": [
        -5.980973646453837,
        -16.528846695498547,
        -5.522534143559378
      ],
      "name": "DirectionalLight",
      "extensions": {
        "KHR_lights_punctual": {
          "light": 0
        }
      }
    }
  ],
  "bufferViews": [
    {
      "buffer": 0,
      "byteOffset": 0,
      "byteLength": 29300,
      "target": 34962,
      "byteStride": 4
    },
    {
      "buffer": 0,
      "byteOffset": 29300,
      "byteLength": 117200,
      "target": 34962,
      "byteStride": 16
    },
    {
      "buffer": 0,
      "byteOffset": 146500,
      "byteLength": 87900,
      "target": 34962,
      "byteStride": 12
    },
    {
      "buffer": 0,
      "byteOffset": 234400,
      "byteLength": 87900,
      "target": 34962,
      "byteStride": 12
    },
    {
      "buffer": 0,
      "byteOffset": 322300,
      "byteLength": 58600,
      "target": 34962,
      "byteStride": 8
    },
    {
      "buffer": 0,
      "byteOffset": 380900,
      "byteLength": 58600,
      "target": 34962,
      "byteStride": 8
    },
    {
      "buffer": 0,
      "byteOffset": 439500,
      "byteLength": 58600,
      "target": 34962,
      "byteStride": 8
    },
    {
      "buffer": 0,
      "byteOffset": 498100,
      "byteLength": 58600,
      "target": 34962,
      "byteStride": 8
    },
    {
      "buffer": 0,
      "byteOffset": 556700,
      "byteLength": 58600,
      "target": 34962,
      "byteStride": 8
    },
    {
      "buffer": 0,
      "byteOffset": 615300,
      "byteLength": 58600,
      "target": 34962,
      "byteStride": 8
    },
    {
      "buffer": 0,
      "byteOffset": 673900,
      "byteLength": 58600,
      "target": 34962,
      "byteStride": 8
    },
    {
      "buffer": 0,
      "byteOffset": 732500,
      "byteLength": 67116,
      "target": 34963
    },
    {
      "buffer": 0,
      "byteOffset": 799616,
      "byteLength": 3136
    }
  ],
  "buffers": [
    {
      "byteLength": 802752,
      "uri": "data:application/octet-stream;base64,"
    }
  ],
  "accessors": [
    {
      "bufferView": 0,
      "componentType": 5121,
      "count": 7325,
      "max": [
        48,
        48,
        48,
        46
      ],
      "min": [
        0,
        0,
        0,
        0
      ],
      "type": "VEC4"
    },
    {
      "bufferView": 1,
      "componentType": 5126,
      "count": 7325,
      "max": [
        1,
        0.4987192749977112,
        0.32777222990989685,
        0.16418574750423431
      ],
      "min": [
        0.30863258242607117,
        0,
        0,
        0
      ],
      "type": "VEC4"
    },
    {
      "bufferView": 2,
      "componentType": 5126,
      "count": 7325,
      "max": [
        0.9997826814651489,
        1,
        0.9999994039535522
      ],
      "min": [
        -0.9997831583023071,
        -1,
        -0.9995639324188232
      ],
      "type": "VEC3"
    },
    {
      "bufferView": 3,
      "componentType": 5126,
      "count": 7325,
      "max": [
        92.40654754638672,
        21.90441131591797,
        183.18328857421875
      ],
      "min": [
        -92.38803100585938,
        -22.48186683654785,
        -0.03700200095772743
      ],
      "type": "VEC3"
    },
    {
      "bufferView": 4,
      "componentType": 5126,
      "count": 7325,
      "max": [
        0.9940400123596191,
        0.9985420107841492
      ],
      "min": [
        0.001689000055193901,
        0.0029619932174682617
      ],
      "type": "VEC2"
    },
    {
      "bufferView": 5,
      "componentType": 5126,
      "count": 7325,
      "max": [
        0.9940400123596191,
        0.9985420107841492
      ],
      "min": [
        0.001689000055193901,
        0.0029619932174682617
      ],
      "type": "VEC2"
    },
    {
      "bufferView": 6,
      "componentType": 5126,
      "count": 7325,
      "max": [
        0.9940400123596191,
        0.9985420107841492
      ],
      "min": [
        0.001689000055193901,
        0.0029619932174682617
      ],
      "type": "VEC2"
    },
    {
      "bufferView": 7,
      "componentType": 5126,
      "count": 7325,
      "max": [
        0.9940400123596191,
        0.9985420107841492
      ],
      "min": [
        0.001689000055193901,
        0.0029619932174682617
      ],
      "type": "VEC2"
    },
    {
      "bufferView": 8,
      "componentType": 5126,
      "count": 7325,
      "max": [
        0.9940400123596191,
        0.9985420107841492
      ],
      "min": [
        0.001689000055193901,
        0.0029619932174682617
      ],
      "type": "VEC2"
    },
    {
      "bufferView": 9,
      "componentType": 5126,
      "count": 7325,
      "max": [
        0.9940400123596191,
        0.9985420107841492
      ],
      "min": [
        0.001689000055193901,
        0.0029619932174682617
      ],
      "type": "VEC2"
    },
    {
      "bufferView": 10,
      "componentType": 5126,
      "count": 7325,
      "max": [
        0.9940400123596191,
        0.9985420107841492
      ],
      "min": [
        0.001689000055193901,
        0.0029619932174682617
      ],
      "type": "VEC2"
    },
    {
      "bufferView": 11,
      "componentType": 5123,
      "count": 33558,
      "max": [
        7324
      ],
      "min": [
        0
      ],
      "type": "SCALAR"
    },
    {
      "bufferView": 12,
      "componentType": 5126,
      "count": 49,
      "max": [
        0.000001267775587621145,
        1.0000001192092896,
        0.0000031015308650239604,
        0,
        1.5099580252808664e-7,
        1,
        1,
        0,
        1.0000001192092896,
        1.0000001192092896,
        0.0000014274048680817941,
        0,
        12.367107391357422,
        100.85847473144531,
        13.22179126739502,
        1
      ],
      "min": [
        -1,
        -1.000000238418579,
        -1.5099580252808664e-7,
        0,
        -0.000003007709437952144,
        -0.000003101530182902934,
        -1,
        0,
        -7.105429051666896e-15,
        -1.0000001192092896,
        -1.0000001192092896,
        0,
        -151.10423278808594,
        -156.86358642578125,
        -11.337681770324707,
        1
      ],
      "type": "MAT4"
    }
  ],
  "materials": [
    {
      "pbrMetallicRoughness": {
        "baseColorFactor": [
          0.8,
          0.8,
          0.8,
          1
        ],
        "metallicFactor": 0,
        "roughnessFactor": 1,
        "baseColorTexture": {
          "index": 0
        }
      },
      "normalTexture": {
        "index": 1
      },
      "name": "VanguardBodyMat"
    }
  ],
  "textures": [
    {
      "sampler": 0,
      "source": 0,
      "name": "vanguard_vanguard_diffuse_tga"
    },
    {
      "sampler": 1,
      "source": 1,
      "name": "file2"
    }
  ],
  "samplers": [
    {
      "magFilter": 9729,
      "minFilter": 9987,
      "wrapS": 10497,
      "wrapT": 10497
    },
    {
      "magFilter": 9729,
      "minFilter": 9987,
      "wrapS": 10497,
      "wrapT": 10497
    }
  ],
  "images": [
    {
      "mimeType": "image/jpeg",
      "uri": "data:image/jpeg;base64,"
    },
    {
      "mimeType": "image/jpeg",
      "uri": "data:image/jpeg;base64,"
    }
  ],
  "meshes": [
    {
      "primitives": [
        {
          "mode": 4,
          "attributes": {
            "JOINTS_0": 0,
            "WEIGHTS_0": 1,
            "NORMAL": 2,
            "POSITION": 3,
            "TEXCOORD_0": 4,
            "TEXCOORD_1": 5,
            "TEXCOORD_2": 6,
            "TEXCOORD_3": 7,
            "TEXCOORD_4": 8,
            "TEXCOORD_5": 9,
            "TEXCOORD_6": 10
          },
          "indices": 11,
          "material": 0
        }
      ]
    }
  ],
  "extensions": {
    "KHR_lights_punctual": {
      "lights": [
        {
          "name": "DirectionalLight",
          "color": [
            1,
            1,
            1
          ],
          "intensity": 2,
          "type": "directional"
        }
      ]
    }
  },
  "skins": [
    {
      "inverseBindMatrices": 12,
      "joints": [
        null,
        null,
        null,
        null,
        null,
        null,
        null,
        null,
        null,
        null,
        null,
        null,
        null,
        null,
        null,
        null,
        null,
        null,
        null,
        null,
        null,
        null,
        null,
        null,
        null,
        null,
        null,
        null,
        null,
        null,
        null,
        null,
        null,
        null,
        null,
        null,
        null,
        null,
        null,
        null,
        null,
        null,
        null,
        null,
        null,
        null,
        null,
        null,
        null
      ]
    }
  ],
  "animations": [],
  "extensionsUsed": [
    "KHR_lights_punctual"
  ]
}