{
  "accessors": [
    {
      "bufferView": 2,
      "componentType": 5126,
      "count": 2963,
      "max": [
        2.6582589149475098,
        7.322946071624756,
        2.6582589149475098
      ],
      "min": [
        -2.6582589149475098,
        -0.3380669951438904,
        -2.6582589149475098
      ],
      "type": "VEC3"
    },
    {
      "bufferView": 2,
      "byteOffset": 35556,
      "componentType": 5126,
      "count": 2963,
      "max": [
        1.0,
        1.0,
        1.0
      ],
      "min": [
        -1.0,
        -1.0,
        -0.9999960660934448
      ],
      "type": "VEC3"
    },
    {
      "bufferView": 3,
      "componentType": 5126,
      "count": 2963,
      "max": [
        1.0,
        1.0,
        0.9999980330467224,
        1.0
      ],
      "min": [
        -0.9999393820762634,
        -1.0,
        -1.0,
        -1.0
      ],
      "type": "VEC4"
    },
    {
      "bufferView": 1,
      "componentType": 5126,
      "count": 2963,
      "max": [
        0.9994969964027405,
        0.9890360236167908
      ],
      "min": [
        0.0005029999883845448,
        0.0005029999883845448
      ],
      "type": "VEC2"
    },
    {
      "bufferView": 0,
      "componentType": 5125,
      "count": 13146,
      "type": "SCALAR"
    }
  ],
  "asset": {
    "extras": {
      "author": "AbiSV (https://sketchfab.com/AbiSV)",
      "license": "CC-BY-NC-ND-4.0 (http://creativecommons.org/licenses/by-nc-nd/4.0/)",
      "source": "https://sketchfab.com/3d-models/halo-frag-by-abisv-e60078790bb84d8799606ec4d047f88a",
      "title": "Halo Frag by AbiSV"
    },
    "generator": "Sketchfab-12.67.0",
    "version": "2.0"
  },
  "bufferViews": [
    {
      "buffer": 0,
      "byteLength": 52584,
      "name": "floatBufferViews",
      "target": 34963
    },
    {
      "buffer": 0,
      "byteLength": 23704,
      "byteOffset": 52584,
      "byteStride": 8,
      "name": "floatBufferViews",
      "target": 34962
    },
    {
      "buffer": 0,
      "byteLength": 71112,
      "byteOffset": 76288,
      "byteStride": 12,
      "name": "floatBufferViews",
      "target": 34962
    },
    {
      "buffer": 0,
      "byteLength": 47408,
      "byteOffset": 147400,
      "byteStride": 16,
      "name": "floatBufferViews",
      "target": 34962
    }
  ],
  "buffers": [
    {
      "byteLength": 194808,
      "uri": "scene.bin"
    }
  ],
  "images": [
    {
      "uri": "textures/grenade.002_baseColor.jpeg"
    },
    {
      "uri": "textures/grenade.002_metallicRoughness.png"
    },
    {
      "uri": "textures/grenade.002_normal.jpeg"
    }
  ],
  "materials": [
    {
      "doubleSided": true,
      "name": "grenade.002",
      "normalTexture": {
        "index": 2
      },
      "occlusionTexture": {
        "index": 1
      },
      "pbrMetallicRoughness": {
        "baseColorTexture": {
          "index": 0
        },
        "metallicRoughnessTexture": {
          "index": 1
        }
      }
    }
  ],
  "meshes": [
    {
      "name": "grenade_Plane.006_grenade.002_0",
      "primitives": [
        {
          "attributes": {
            "NORMAL": 1,
            "POSITION": 0,
            "TANGENT": 2,
            "TEXCOORD_0": 3
          },
          "indices": 4,
          "material": 0,
          "mode": 4
        }
      ]
    }
  ],
  "nodes": [
    {
      "children": [
        1
      ],
      "matrix": [
        0.37264278531074524,
        0.0,
        0.0,
        0.0,
        0.0,
        8.274332004248769e-17,
        -0.37264278531074524,
        0.0,
        0.0,
        0.37264278531074524,
        8.274332004248769e-17,
        0.0,
        0.0,
        0.0,
        0.0,
        1.0
      ],
      "name": "Sketchfab_model"
    },
    {
      "children": [
        2
      ],
      "matrix": [
        1.0,
        0.0,
        0.0,
        0.0,
        0.0,
        0.0,
        1.0,
        0.0,
        0.0,
        -1.0,
        0.0,
        0.0,
        0.0,
        0.0,
        0.0,
        1.0
      ],
      "name": "3c34aa723ab542598c5d90f135944d50.fbx"
    },
    {
      "children": [
        3
      ],
      "name": "RootNode"
    },
    {
      "children": [
        4
      ],
      "matrix": [
        100.0,
        0.0,
        0.0,
        0.0,
        0.0,
        99.99999999999866,
        1.6292067073209114e-05,
        0.0,
        0.0,
        -1.6292067073209114e-05,
        99.99999999999866,
        0.0,
        0.0,
        0.0,
        0.0,
        1.0
      ],
      "name": "grenade_Plane.006"
    },
    {
      "mesh": 0,
      "name": "grenade_Plane.006_grenade.002_0"
    }
  ],
  "samplers": [
    {
      "magFilter": 9729,
      "minFilter": 9987,
      "wrapS": 10497,
      "wrapT": 10497
    }
  ],
  "scene": 0,
  "scenes": [
    {
      "name": "Sketchfab_Scene",
      "nodes": [
        0
      ]
    }
  ],
  "textures": [
    {
      "sampler": 0,
      "source": 0
    },
    {
      "sampler": 0,
      "source": 1
    },
    {
      "sampler": 0,
      "source": 2
    }
  ]
}
