{
  "accessors": [
    {
      "bufferView": 2,
      "componentType": 5126,
      "count": 37470,
      "max": [
        0.029850909486413002,
        0.40437430143356323,
        0.07117495685815811
      ],
      "min": [
        -0.036207109689712524,
        -0.3568705916404724,
        -0.14526081085205078
      ],
      "type": "VEC3"
    },
    {
      "bufferView": 2,
      "byteOffset": 449640,
      "componentType": 5126,
      "count": 37470,
      "max": [
        1.0,
        1.0,
        1.0
      ],
      "min": [
        -1.0,
        -1.0,
        -1.0
      ],
      "type": "VEC3"
    },
    {
      "bufferView": 3,
      "componentType": 5126,
      "count": 37470,
      "max": [
        1.0,
        1.0,
        1.0,
        1.0
      ],
      "min": [
        -1.0,
        -1.0,
        -1.0,
        -1.0
      ],
      "type": "VEC4"
    },
    {
      "bufferView": 1,
      "componentType": 5126,
      "count": 37470,
      "max": [
        1.0,
        0.9997898936271667
      ],
      "min": [
        0.0,
        0.0
      ],
      "type": "VEC2"
    },
    {
      "bufferView": 0,
      "componentType": 5125,
      "count": 97092,
      "type": "SCALAR"
    },
    {
      "bufferView": 2,
      "byteOffset": 899280,
      "componentType": 5126,
      "count": 2686,
      "max": [
        0.03234634920954704,
        0.015035003423690796,
        0.005884870886802673
      ],
      "min": [
        -0.032497432082891464,
        -0.16793382167816162,
        -0.005250364542007446
      ],
      "type": "VEC3"
    },
    {
      "bufferView": 2,
      "byteOffset": 931512,
      "componentType": 5126,
      "count": 2686,
      "max": [
        1.0,
        1.0,
        1.0
      ],
      "min": [
        -1.0,
        -1.0,
        -1.0
      ],
      "type": "VEC3"
    },
    {
      "bufferView": 3,
      "byteOffset": 599520,
      "componentType": 5126,
      "count": 2686,
      "max": [
        1.0,
        1.0,
        1.0,
        1.0
      ],
      "min": [
        -1.0,
        -1.0,
        -1.0,
        -1.0
      ],
      "type": "VEC4"
    },
    {
      "bufferView": 1,
      "byteOffset": 299760,
      "componentType": 5126,
      "count": 2686,
      "max": [
        0.9997559785842896,
        0.9996345043182373
      ],
      "min": [
        0.001942962408065796,
        0.0
      ],
      "type": "VEC2"
    },
    {
      "bufferView": 0,
      "byteOffset": 388368,
      "componentType": 5125,
      "count": 6222,
      "type": "SCALAR"
    },
    {
      "bufferView": 2,
      "byteOffset": 963744,
      "componentType": 5126,
      "count": 4139,
      "max": [
        0.019483627751469612,
        0.032371342182159424,
        0.032684773206710815
      ],
      "min": [
        -0.017513366416096687,
        -0.03358764946460724,
        -0.0372222363948822
      ],
      "type": "VEC3"
    },
    {
      "bufferView": 2,
      "byteOffset": 1013412,
      "componentType": 5126,
      "count": 4139,
      "max": [
        1.0,
        1.0,
        1.0
      ],
      "min": [
        -1.0,
        -1.0,
        -1.0
      ],
      "type": "VEC3"
    },
    {
      "bufferView": 3,
      "byteOffset": 642496,
      "componentType": 5126,
      "count": 4139,
      "max": [
        1.0,
        1.0,
        1.0,
        1.0
      ],
      "min": [
        -1.0,
        -1.0,
        -1.0,
        -1.0
      ],
      "type": "VEC4"
    },
    {
      "bufferView": 1,
      "byteOffset": 321248,
      "componentType": 5126,
      "count": 4139,
      "max": [
        0.9964097142219543,
        0.9997091889381409
      ],
      "min": [
        0.00027783215045928955,
        0.07310913503170013
      ],
      "type": "VEC2"
    },
    {
      "bufferView": 0,
      "byteOffset": 413256,
      "componentType": 5125,
      "count": 12648,
      "type": "SCALAR"
    },
    {
      "bufferView": 2,
      "byteOffset": 1063080,
      "componentType": 5126,
      "count": 3229,
      "max": [
        0.012574869208037853,
        0.03293459117412567,
        0.08369508385658264
      ],
      "min": [
        -0.012634235434234142,
        -0.05713622272014618,
        -0.11015285551548004
      ],
      "type": "VEC3"
    },
    {
      "bufferView": 2,
      "byteOffset": 1101828,
      "componentType": 5126,
      "count": 3229,
      "max": [
        1.0,
        1.0,
        1.0
      ],
      "min": [
        -1.0,
        -1.0,
        -1.0
      ],
      "type": "VEC3"
    },
    {
      "bufferView": 3,
      "byteOffset": 708720,
      "componentType": 5126,
      "count": 3229,
      "max": [
        1.0,
        1.0,
        1.0,
        1.0
      ],
      "min": [
        -1.0,
        -1.0,
        -1.0,
        -1.0
      ],
      "type": "VEC4"
    },
    {
      "bufferView": 1,
      "byteOffset": 354360,
      "componentType": 5126,
      "count": 3229,
      "max": [
        0.9999794363975525,
        0.9997326135635376
      ],
      "min": [
        0.012048625387251377,
        0.0
      ],
      "type": "VEC2"
    },
    {
      "bufferView": 0,
      "byteOffset": 463848,
      "componentType": 5125,
      "count": 8745,
      "type": "SCALAR"
    }
  ],
  "asset": {
    "extras": {
      "author": "teenjust500 (https://sketchfab.com/teenjust500)",
      "license": "CC-BY-4.0 (http://creativecommons.org/licenses/by/4.0/)",
      "source": "https://sketchfab.com/3d-models/corrected-ar15-8e52cbcd512d4865ad7b0240137860fb",
      "title": "Corrected Ar15"
    },
    "generator": "Sketchfab-13.68.0",
    "version": "2.0"
  },
  "bufferViews": [
    {
      "buffer": 0,
      "byteLength": 498828,
      "name": "floatBufferViews",
      "target": 34963
    },
    {
      "buffer": 0,
      "byteLength": 380192,
      "byteOffset": 498828,
      "byteStride": 8,
      "name": "floatBufferViews",
      "target": 34962
    },
    {
      "buffer": 0,
      "byteLength": 1140576,
      "byteOffset": 879020,
      "byteStride": 12,
      "name": "floatBufferViews",
      "target": 34962
    },
    {
      "buffer": 0,
      "byteLength": 760384,
      "byteOffset": 2019596,
      "byteStride": 16,
      "name": "floatBufferViews",
      "target": 34962
    }
  ],
  "buffers": [
    {
      "byteLength": 2779980,
      "uri": "scene.bin"
    }
  ],
  "images": [
    {
      "uri": "textures/material_baseColor.png"
    },
    {
      "uri": "textures/material_metallicRoughness.png"
    },
    {
      "uri": "textures/material_normal.png"
    }
  ],
  "materials": [
    {
      "doubleSided": true,
      "name": "material",
      "normalTexture": {
        "index": 2
      },
      "occlusionTexture": {
        "index": 1
      },
      "pbrMetallicRoughness": {
        "baseColorTexture": {
          "index": 0
        },
        "metallicRoughnessTexture": {
          "index": 1
        }
      }
    }
  ],
  "meshes": [
    {
      "name": "Base_YOU_0",
      "primitives": [
        {
          "attributes": {
            "NORMAL": 1,
            "POSITION": 0,
            "TANGENT": 2,
            "TEXCOORD_0": 3
          },
          "indices": 4,
          "material": 0,
          "mode": 4
        }
      ]
    },
    {
      "name": "Tri_YOU_0",
      "primitives": [
        {
          "attributes": {
            "NORMAL": 6,
            "POSITION": 5,
            "TANGENT": 7,
            "TEXCOORD_0": 8
          },
          "indices": 9,
          "material": 0,
          "mode": 4
        }
      ]
    },
    {
      "name": "Scope_YOU_0",
      "primitives": [
        {
          "attributes": {
            "NORMAL": 11,
            "POSITION": 10,
            "TANGENT": 12,
            "TEXCOORD_0": 13
          },
          "indices": 14,
          "material": 0,
          "mode": 4
        }
      ]
    },
    {
      "name": "Mag_YOU_0",
      "primitives": [
        {
          "attributes": {
            "NORMAL": 16,
            "POSITION": 15,
            "TANGENT": 17,
            "TEXCOORD_0": 18
          },
          "indices": 19,
          "material": 0,
          "mode": 4
        }
      ]
    }
  ],
  "nodes": [
    {
      "children": [
        1
      ],
      "matrix": [
        1.0,
        0.0,
        0.0,
        0.0,
        0.0,
        2.220446049250313e-16,
        -1.0,
        0.0,
        0.0,
        1.0,
        2.220446049250313e-16,
        0.0,
        0.0,
        0.0,
        0.0,
        1.0
      ],
      "name": "Sketchfab_model"
    },
    {
      "children": [
        2
      ],
      "matrix": [
        0.009999999776482582,
        0.0,
        0.0,
        0.0,
        0.0,
        0.0,
        0.009999999776482582,
        0.0,
        0.0,
        -0.009999999776482582,
        0.0,
        0.0,
        0.0,
        0.0,
        0.0,
        1.0
      ],
      "name": "ar 15.fbx"
    },
    {
      "children": [
        3,
        5,
        7,
        9
      ],
      "name": "RootNode"
    },
    {
      "children": [
        4
      ],
      "matrix": [
        100.0,
        0.0,
        0.0,
        0.0,
        0.0,
        -1.6292079126058406e-05,
        -100.00006866454946,
        0.0,
        0.0,
        99.99999999999868,
        -1.629206793918314e-05,
        0.0,
        12.555795669555664,
        -0.8203030824661255,
        -0.8304089307785034,
        1.0
      ],
      "name": "Base"
    },
    {
      "mesh": 0,
      "name": "Base_YOU_0"
    },
    {
      "children": [
        6
      ],
      "matrix": [
        100.0,
        0.0,
        0.0,
        0.0,
        0.0,
        -1.6292079126058406e-05,
        -100.00006866454946,
        0.0,
        0.0,
        99.99999999999868,
        -1.629206793918314e-05,
        0.0,
        12.698541641235352,
        2.2015838623046875,
        -16.25334930419922,
        1.0
      ],
      "name": "Tri"
    },
    {
      "mesh": 1,
      "name": "Tri_YOU_0"
    },
    {
      "children": [
        8
      ],
      "matrix": [
        100.0,
        0.0,
        0.0,
        0.0,
        0.0,
        -1.6292070425155422e-05,
        -100.00001525878774,
        0.0,
        0.0,
        99.99999999999868,
        -1.629206793918314e-05,
        0.0,
        12.537222862243652,
        5.769812107086182,
        -1.224908471107483,
        1.0
      ],
      "name": "Scope"
    },
    {
      "mesh": 2,
      "name": "Scope_YOU_0"
    },
    {
      "children": [
        10
      ],
      "matrix": [
        100.0,
        0.0,
        0.0,
        0.0,
        0.0,
        -1.6292079126058406e-05,
        -100.00006866454946,
        0.0,
        0.0,
        99.99999999999868,
        -1.629206793918314e-05,
        0.0,
        12.697010040283203,
        -10.971365928649902,
        -1.7313092947006226,
        1.0
      ],
      "name": "Mag"
    },
    {
      "mesh": 3,
      "name": "Mag_YOU_0"
    }
  ],
  "samplers": [
    {
      "magFilter": 9729,
      "minFilter": 9987,
      "wrapS": 10497,
      "wrapT": 10497
    }
  ],
  "scene": 0,
  "scenes": [
    {
      "name": "Sketchfab_Scene",
      "nodes": [
        0
      ]
    }
  ],
  "textures": [
    {
      "sampler": 0,
      "source": 0
    },
    {
      "sampler": 0,
      "source": 1
    },
    {
      "sampler": 0,
      "source": 2
    }
  ]
}
