{
  "accessors": [
    {
      "bufferView": 2,
      "componentType": 5126,
      "count": 37518,
      "max": [
        13.554536819458008,
        0.723335325717926,
        1.7657884359359741
      ],
      "min": [
        -5.899214267730713,
        -0.6681643724441528,
        -2.215311288833618
      ],
      "type": "VEC3"
    },
    {
      "bufferView": 2,
      "byteOffset": 450216,
      "componentType": 5126,
      "count": 37518,
      "max": [
        1.0,
        1.0,
        1.0
      ],
      "min": [
        -1.0,
        -1.0,
        -1.0
      ],
      "type": "VEC3"
    },
    {
      "bufferView": 1,
      "componentType": 5126,
      "count": 37518,
      "max": [
        0.9980000257492065,
        0.9969000220298767
      ],
      "min": [
        0.0020000000949949026,
        0.001999974250793457
      ],
      "type": "VEC2"
    },
    {
      "bufferView": 0,
      "componentType": 5125,
      "count": 47094,
      "type": "SCALAR"
    },
    {
      "bufferView": 2,
      "byteOffset": 900432,
      "componentType": 5126,
      "count": 3418,
      "max": [
        0.9730000495910645,
        1.640375018119812,
        0.36354994773864746
      ],
      "min": [
        -0.9730000495910645,
        -1.640375018119812,
        -0.363550066947937
      ],
      "type": "VEC3"
    },
    {
      "bufferView": 2,
      "byteOffset": 941448,
      "componentType": 5126,
      "count": 3418,
      "max": [
        1.0,
        1.0,
        1.0
      ],
      "min": [
        -1.0,
        -1.0,
        -1.0
      ],
      "type": "VEC3"
    },
    {
      "bufferView": 1,
      "byteOffset": 300144,
      "componentType": 5126,
      "count": 3418,
      "max": [
        0.9918000102043152,
        0.9882000088691711
      ],
      "min": [
        0.0020000000949949026,
        0.001999974250793457
      ],
      "type": "VEC2"
    },
    {
      "bufferView": 0,
      "byteOffset": 188376,
      "componentType": 5125,
      "count": 4032,
      "type": "SCALAR"
    },
    {
      "bufferView": 2,
      "byteOffset": 982464,
      "componentType": 5126,
      "count": 569,
      "max": [
        1.180799961090088,
        0.22574999928474426,
        0.22800016403198242
      ],
      "min": [
        -1.180799961090088,
        -0.22574999928474426,
        -0.22799992561340332
      ],
      "type": "VEC3"
    },
    {
      "bufferView": 2,
      "byteOffset": 989292,
      "componentType": 5126,
      "count": 569,
      "max": [
        0.8750499486923218,
        0.9903845191001892,
        0.9999995231628418
      ],
      "min": [
        -1.0,
        -0.9898265600204468,
        -0.9997055530548096
      ],
      "type": "VEC3"
    },
    {
      "bufferView": 1,
      "byteOffset": 327488,
      "componentType": 5126,
      "count": 569,
      "max": [
        0.9585000276565552,
        0.9628000259399414
      ],
      "min": [
        0.05719999969005585,
        0.001999974250793457
      ],
      "type": "VEC2"
    },
    {
      "bufferView": 0,
      "byteOffset": 204504,
      "componentType": 5125,
      "count": 741,
      "type": "SCALAR"
    },
    {
      "bufferView": 2,
      "byteOffset": 996120,
      "componentType": 5126,
      "count": 12122,
      "max": [
        3.7749252319335938,
        0.9373250007629395,
        0.8723751306533813
      ],
      "min": [
        -3.7749252319335938,
        -0.9373250603675842,
        -0.8723750114440918
      ],
      "type": "VEC3"
    },
    {
      "bufferView": 2,
      "byteOffset": 1141584,
      "componentType": 5126,
      "count": 12122,
      "max": [
        1.0,
        1.0,
        1.0
      ],
      "min": [
        -1.0,
        -1.0,
        -1.0
      ],
      "type": "VEC3"
    },
    {
      "bufferView": 1,
      "byteOffset": 332040,
      "componentType": 5126,
      "count": 12122,
      "max": [
        0.9962999820709229,
        0.996999979019165
      ],
      "min": [
        0.003000000026077032,
        0.003000020980834961
      ],
      "type": "VEC2"
    },
    {
      "bufferView": 0,
      "byteOffset": 207468,
      "componentType": 5125,
      "count": 14628,
      "type": "SCALAR"
    },
    {
      "bufferView": 2,
      "byteOffset": 1287048,
      "componentType": 5126,
      "count": 12322,
      "max": [
        0.9811501502990723,
        1.878000259399414,
        2.2772998809814453
      ],
      "min": [
        -0.9811501502990723,
        -1.8779999017715454,
        -2.2772998809814453
      ],
      "type": "VEC3"
    },
    {
      "bufferView": 2,
      "byteOffset": 1434912,
      "componentType": 5126,
      "count": 12322,
      "max": [
        1.0,
        1.0,
        1.0
      ],
      "min": [
        -1.0,
        -1.0,
        -1.0
      ],
      "type": "VEC3"
    },
    {
      "bufferView": 1,
      "byteOffset": 429016,
      "componentType": 5126,
      "count": 12322,
      "max": [
        0.9951000213623047,
        0.9959999918937683
      ],
      "min": [
        0.004000000189989805,
        0.0040000081062316895
      ],
      "type": "VEC2"
    },
    {
      "bufferView": 0,
      "byteOffset": 265980,
      "componentType": 5125,
      "count": 15156,
      "type": "SCALAR"
    },
    {
      "bufferView": 2,
      "byteOffset": 1582776,
      "componentType": 5126,
      "count": 29,
      "max": [
        3.6828010082244873,
        0.504253625869751,
        0.5042299032211304
      ],
      "min": [
        3.6018028259277344,
        -0.504252552986145,
        -0.5042288303375244
      ],
      "type": "VEC3"
    },
    {
      "bufferView": 2,
      "byteOffset": 1583124,
      "componentType": 5126,
      "count": 29,
      "max": [
        -0.9737887382507324,
        0.22598491609096527,
        0.22601209580898285
      ],
      "min": [
        -1.0,
        -0.22600634396076202,
        -0.22601929306983948
      ],
      "type": "VEC3"
    },
    {
      "bufferView": 1,
      "byteOffset": 527592,
      "componentType": 5126,
      "count": 29,
      "max": [
        0.974399983882904,
        0.9994999766349792
      ],
      "min": [
        0.0005000000237487257,
        0.000500023365020752
      ],
      "type": "VEC2"
    },
    {
      "bufferView": 0,
      "byteOffset": 326604,
      "componentType": 5125,
      "count": 126,
      "type": "SCALAR"
    },
    {
      "bufferView": 2,
      "byteOffset": 1583472,
      "componentType": 5126,
      "count": 22,
      "max": [
        -3.567612409591675,
        0.40541791915893555,
        0.40655770897865295
      ],
      "min": [
        -3.6663401126861572,
        -0.40542078018188477,
        -0.40422117710113525
      ],
      "type": "VEC3"
    },
    {
      "bufferView": 2,
      "byteOffset": 1583736,
      "componentType": 5126,
      "count": 22,
      "max": [
        1.0,
        0.31026691198349,
        0.3087809979915619
      ],
      "min": [
        0.9501799941062927,
        -0.30871379375457764,
        -0.310224324464798
      ],
      "type": "VEC3"
    },
    {
      "bufferView": 1,
      "byteOffset": 527824,
      "componentType": 5126,
      "count": 22,
      "max": [
        0.9750999808311462,
        0.9994999766349792
      ],
      "min": [
        0.0005000000237487257,
        0.000500023365020752
      ],
      "type": "VEC2"
    },
    {
      "bufferView": 0,
      "byteOffset": 327108,
      "componentType": 5125,
      "count": 84,
      "type": "SCALAR"
    }
  ],
  "asset": {
    "extras": {
      "author": "trolosqlfod (https://sketchfab.com/trolosqlfod)",
      "license": "CC-BY-4.0 (http://creativecommons.org/licenses/by/4.0/)",
      "source": "https://sketchfab.com/3d-models/hk-g28-sniper-rifle-997840668e1e4c1384c7220563323085",
      "title": "HK G28 Sniper Rifle"
    },
    "generator": "Sketchfab-12.82.3",
    "version": "2.0"
  },
  "bufferViews": [
    {
      "buffer": 0,
      "byteLength": 327444,
      "name": "floatBufferViews",
      "target": 34963
    },
    {
      "buffer": 0,
      "byteLength": 528000,
      "byteOffset": 327444,
      "byteStride": 8,
      "name": "floatBufferViews",
      "target": 34962
    },
    {
      "buffer": 0,
      "byteLength": 1584000,
      "byteOffset": 855444,
      "byteStride": 12,
      "name": "floatBufferViews",
      "target": 34962
    }
  ],
  "buffers": [
    {
      "byteLength": 2439444,
      "uri": "scene.bin"
    }
  ],
  "images": [
    {
      "uri": "textures/mat0_baseColor.png"
    },
    {
      "uri": "textures/mat0.003_baseColor.png"
    },
    {
      "uri": "textures/mat0.004_baseColor.png"
    },
    {
      "uri": "textures/mat0.005_baseColor.png"
    },
    {
      "uri": "textures/mat0.006_baseColor.png"
    }
  ],
  "materials": [
    {
      "doubleSided": true,
      "name": "mat0",
      "pbrMetallicRoughness": {
        "baseColorTexture": {
          "index": 0
        },
        "metallicFactor": 0.0,
        "roughnessFactor": 0.34323609367190455
      }
    },
    {
      "doubleSided": true,
      "name": "mat0.001",
      "pbrMetallicRoughness": {
        "baseColorTexture": {
          "index": 0
        },
        "metallicFactor": 0.0,
        "roughnessFactor": 0.552786
      }
    },
    {
      "doubleSided": true,
      "name": "mat0.002",
      "pbrMetallicRoughness": {
        "baseColorTexture": {
          "index": 0
        },
        "metallicFactor": 0.0,
        "roughnessFactor": 0.552786
      }
    },
    {
      "doubleSided": true,
      "name": "mat0.003",
      "pbrMetallicRoughness": {
        "baseColorTexture": {
          "index": 1
        },
        "metallicFactor": 0.0,
        "roughnessFactor": 0.552786
      }
    },
    {
      "doubleSided": true,
      "name": "mat0.004",
      "pbrMetallicRoughness": {
        "baseColorTexture": {
          "index": 2
        },
        "metallicFactor": 0.0,
        "roughnessFactor": 0.552786
      }
    },
    {
      "alphaMode": "BLEND",
      "doubleSided": true,
      "name": "mat0.005",
      "pbrMetallicRoughness": {
        "baseColorTexture": {
          "index": 3
        },
        "metallicFactor": 0.0,
        "roughnessFactor": 0.552786
      }
    },
    {
      "alphaMode": "BLEND",
      "doubleSided": true,
      "name": "mat0.006",
      "pbrMetallicRoughness": {
        "baseColorTexture": {
          "index": 4
        },
        "metallicFactor": 0.0,
        "roughnessFactor": 0.552786
      }
    }
  ],
  "meshes": [
    {
      "name": "Object_0",
      "primitives": [
        {
          "attributes": {
            "NORMAL": 1,
            "POSITION": 0,
            "TEXCOORD_0": 2
          },
          "indices": 3,
          "material": 0,
          "mode": 4
        }
      ]
    },
    {
      "name": "Object_1",
      "primitives": [
        {
          "attributes": {
            "NORMAL": 5,
            "POSITION": 4,
            "TEXCOORD_0": 6
          },
          "indices": 7,
          "material": 1,
          "mode": 4
        }
      ]
    },
    {
      "name": "Object_2",
      "primitives": [
        {
          "attributes": {
            "NORMAL": 9,
            "POSITION": 8,
            "TEXCOORD_0": 10
          },
          "indices": 11,
          "material": 2,
          "mode": 4
        }
      ]
    },
    {
      "name": "Object_3",
      "primitives": [
        {
          "attributes": {
            "NORMAL": 13,
            "POSITION": 12,
            "TEXCOORD_0": 14
          },
          "indices": 15,
          "material": 3,
          "mode": 4
        }
      ]
    },
    {
      "name": "Object_4",
      "primitives": [
        {
          "attributes": {
            "NORMAL": 17,
            "POSITION": 16,
            "TEXCOORD_0": 18
          },
          "indices": 19,
          "material": 4,
          "mode": 4
        }
      ]
    },
    {
      "name": "Object_5",
      "primitives": [
        {
          "attributes": {
            "NORMAL": 21,
            "POSITION": 20,
            "TEXCOORD_0": 22
          },
          "indices": 23,
          "material": 5,
          "mode": 4
        }
      ]
    },
    {
      "name": "Object_6",
      "primitives": [
        {
          "attributes": {
            "NORMAL": 25,
            "POSITION": 24,
            "TEXCOORD_0": 26
          },
          "indices": 27,
          "material": 6,
          "mode": 4
        }
      ]
    }
  ],
  "nodes": [
    {
      "children": [
        1
      ],
      "matrix": [
        1.0,
        0.0,
        0.0,
        0.0,
        0.0,
        2.220446049250313e-16,
        -1.0,
        0.0,
        0.0,
        1.0,
        2.220446049250313e-16,
        0.0,
        0.0,
        0.0,
        0.0,
        1.0
      ],
      "name": "Sketchfab_model"
    },
    {
      "children": [
        2
      ],
      "name": "root"
    },
    {
      "children": [
        3,
        5,
        7,
        9,
        11,
        13,
        15
      ],
      "matrix": [
        1.0,
        0.0,
        0.0,
        0.0,
        0.0,
        2.220446049250313e-16,
        1.0,
        0.0,
        0.0,
        -1.0,
        2.220446049250313e-16,
        0.0,
        0.0,
        0.0,
        0.0,
        1.0
      ],
      "name": "GLTF_SceneRootNode"
    },
    {
      "children": [
        4
      ],
      "matrix": [
        1.0,
        0.0,
        0.0,
        0.0,
        0.0,
        -1.685873969314855e-07,
        0.9999999999999858,
        0.0,
        0.0,
        -0.9999999999999858,
        -1.685873969314855e-07,
        0.0,
        0.0,
        0.0,
        0.0,
        1.0
      ],
      "name": "Body_0"
    },
    {
      "mesh": 0,
      "name": "Object_4"
    },
    {
      "children": [
        6
      ],
      "matrix": [
        1.0,
        0.0,
        0.0,
        0.0,
        0.0,
        1.0,
        0.0,
        0.0,
        0.0,
        0.0,
        1.0,
        0.0,
        3.1168839931488037,
        -0.6168866753578186,
        0.0,
        1.0
      ],
      "name": "Mag_1"
    },
    {
      "mesh": 1,
      "name": "Object_6"
    },
    {
      "children": [
        8
      ],
      "matrix": [
        1.0,
        0.0,
        0.0,
        0.0,
        0.0,
        1.0,
        0.0,
        0.0,
        0.0,
        0.0,
        1.0,
        0.0,
        2.8640260696411133,
        1.2996509075164795,
        0.02972235344350338,
        1.0
      ],
      "name": "Reciever_2"
    },
    {
      "mesh": 2,
      "name": "Object_8"
    },
    {
      "children": [
        10
      ],
      "matrix": [
        1.0,
        0.0,
        0.0,
        0.0,
        0.0,
        1.0,
        0.0,
        0.0,
        0.0,
        0.0,
        1.0,
        0.0,
        2.820483922958374,
        2.7954204082489014,
        0.11809863895177841,
        1.0
      ],
      "name": "Scope_3"
    },
    {
      "mesh": 3,
      "name": "Object_10"
    },
    {
      "children": [
        12
      ],
      "matrix": [
        1.0,
        0.0,
        0.0,
        0.0,
        0.0,
        1.0,
        0.0,
        0.0,
        0.0,
        0.0,
        1.0,
        0.0,
        7.298300743103027,
        -1.0791176557540894,
        0.0,
        1.0
      ],
      "name": "Bipod_4"
    },
    {
      "mesh": 4,
      "name": "Object_12"
    },
    {
      "children": [
        14
      ],
      "matrix": [
        1.0,
        0.0,
        0.0,
        0.0,
        0.0,
        1.0,
        0.0,
        0.0,
        0.0,
        0.0,
        1.0,
        0.0,
        2.820483922958374,
        2.73126482963562,
        0.013391941785812378,
        1.0
      ],
      "name": "LenseF_5"
    },
    {
      "mesh": 5,
      "name": "Object_14"
    },
    {
      "children": [
        16
      ],
      "matrix": [
        1.0,
        0.0,
        0.0,
        0.0,
        0.0,
        1.0,
        0.0,
        0.0,
        0.0,
        0.0,
        1.0,
        0.0,
        2.820483922958374,
        2.7338979244232178,
        0.002523263916373253,
        1.0
      ],
      "name": "LenseR_6"
    },
    {
      "mesh": 6,
      "name": "Object_16"
    }
  ],
  "samplers": [
    {
      "magFilter": 9729,
      "minFilter": 9987,
      "wrapS": 10497,
      "wrapT": 10497
    }
  ],
  "scene": 0,
  "scenes": [
    {
      "name": "Sketchfab_Scene",
      "nodes": [
        0
      ]
    }
  ],
  "textures": [
    {
      "sampler": 0,
      "source": 0
    },
    {
      "sampler": 0,
      "source": 1
    },
    {
      "sampler": 0,
      "source": 2
    },
    {
      "sampler": 0,
      "source": 3
    },
    {
      "sampler": 0,
      "source": 4
    }
  ]
}
